<svg width="21" height="20" viewBox="0 0 21 20" fill="none" xmlns="http://www.w3.org/2000/svg">
<g clip-path="url(#clip0_153_2785)">
<path opacity="0.977" fill-rule="evenodd" clip-rule="evenodd" d="M20.4805 4.39493C20.4805 4.64231 20.4805 4.88973 20.4805 5.13712C20.4138 5.3036 20.3421 5.4729 20.2656 5.64493C19.9686 6.09563 19.643 6.52532 19.2891 6.93399C18.9216 7.32286 18.4723 7.56376 17.9414 7.65665C17.2025 7.75626 16.4604 7.82137 15.7148 7.85196C15.0296 8.5502 14.333 9.2338 13.625 9.90274C13.3513 9.6486 13.0714 9.40122 12.7852 9.16055C13.0059 8.78489 13.0775 8.38126 13 7.94962C12.8772 7.36708 12.6884 6.8072 12.4336 6.26993C12.7064 5.97751 12.9864 5.69106 13.2734 5.41055C13.2989 4.65165 13.3639 3.89645 13.4688 3.14493C13.5573 2.72037 13.7396 2.34276 14.0156 2.01212C14.4649 1.5762 14.9532 1.19209 15.4805 0.859774C16.0952 0.542047 16.7072 0.555067 17.3164 0.898836C17.4963 1.02632 17.6135 1.1956 17.668 1.40665C17.6448 1.51564 17.5992 1.6133 17.5312 1.69962C17.0364 2.19441 16.5417 2.6892 16.0469 3.18399C15.9133 3.42499 15.9263 3.65937 16.0859 3.88712C16.47 4.27122 16.8542 4.65536 17.2383 5.03946C17.5311 5.23161 17.8045 5.20559 18.0586 4.96134C18.5273 4.49259 18.9961 4.02384 19.4648 3.55509C19.6341 3.42488 19.8034 3.42488 19.9727 3.55509C20.2281 3.78663 20.3974 4.06657 20.4805 4.39493Z" fill="#828282"/>
<path opacity="0.975" fill-rule="evenodd" clip-rule="evenodd" d="M0.480469 7.24583C0.480469 7.07657 0.480469 6.90727 0.480469 6.73802C0.534856 6.66876 0.580429 6.59063 0.617188 6.50364C1.50911 5.61173 2.40104 4.71977 3.29297 3.82786C3.61405 3.64418 3.92655 3.6572 4.23047 3.86692C4.49738 4.13384 4.76434 4.40079 5.03125 4.6677C5.18145 4.85091 5.2791 5.05923 5.32422 5.2927C5.3059 5.43231 5.26031 5.56255 5.1875 5.68333C4.37481 6.53509 3.54799 7.37493 2.70703 8.20286C2.58763 8.30923 2.45742 8.40036 2.31641 8.4763C2.0543 8.57118 1.8069 8.54516 1.57422 8.39817C1.15992 8.05563 0.795336 7.67153 0.480469 7.24583Z" fill="#828282"/>
<path opacity="0.981" fill-rule="evenodd" clip-rule="evenodd" d="M9.19108 5.13662C10.5139 5.09768 11.4579 5.67061 12.0231 6.85537C12.2021 7.32377 12.3258 7.80557 12.3942 8.30069C12.3589 8.83334 12.0854 9.17838 11.5739 9.33584C11.0474 9.44022 10.6502 9.26444 10.3825 8.8085C10.2283 8.42631 10.0981 8.03569 9.99187 7.63662C9.96581 7.61057 9.9398 7.58455 9.91374 7.5585C8.19499 9.27725 6.47624 10.996 4.75749 12.7147C4.02832 11.9856 3.29916 11.2564 2.56999 10.5272C2.35512 10.2219 2.34209 9.9094 2.53093 9.58975C3.91656 8.16506 5.31628 6.75229 6.73015 5.35147C7.55339 5.26846 8.3737 5.19682 9.19108 5.13662Z" fill="#828282"/>
<path opacity="0.958" fill-rule="evenodd" clip-rule="evenodd" d="M9.66023 8.96446C9.70613 8.9559 9.7452 8.96891 9.77742 9.00352C9.94953 9.32536 10.1839 9.59227 10.4805 9.8043C10.4194 9.93567 10.3738 10.0724 10.3438 10.2145C9.63965 10.3978 9.19695 10.8405 9.0157 11.5426C8.31258 11.7249 7.86988 12.1676 7.68758 12.8707C6.58914 13.2318 6.17246 13.974 6.43758 15.0973C6.65148 15.5197 6.95094 15.8712 7.33602 16.152C7.36207 16.178 7.36207 16.204 7.33602 16.2301C6.38973 17.2025 5.41969 18.1465 4.42586 19.0621C3.57372 19.5113 2.812 19.3877 2.1407 18.691C1.66701 18.0082 1.65399 17.3181 2.10164 16.6207C4.60082 14.0499 7.12035 11.4978 9.66023 8.96446ZM3.41023 16.5816C4.15804 16.5677 4.51609 16.9323 4.48445 17.6754C4.20546 18.3197 3.74322 18.4955 3.09773 18.2027C2.66009 17.7581 2.63404 17.2894 3.01961 16.7965C3.14722 16.7133 3.27742 16.6417 3.41023 16.5816Z" fill="#828282"/>
<path opacity="0.98" fill-rule="evenodd" clip-rule="evenodd" d="M12.2778 9.66797C12.367 9.67219 12.4452 9.70473 12.5122 9.76562C13.3119 10.5262 14.0996 11.301 14.8755 12.0898C15.2989 12.7171 15.1882 13.2314 14.5435 13.6328C14.2673 13.7625 13.9939 13.7559 13.7232 13.6133C13.885 14.1046 13.7678 14.5278 13.3716 14.8828C13.0547 15.0394 12.7292 15.0589 12.395 14.9414C12.5964 15.5617 12.4011 16.0239 11.8091 16.3281C11.5454 16.4174 11.2915 16.3979 11.0474 16.2695C11.2696 16.9773 11.0288 17.4525 10.3247 17.6953C10.0139 17.7446 9.74047 17.6665 9.50441 17.4609C8.72968 16.6862 7.95492 15.9114 7.18019 15.1367C6.81125 14.6125 6.86984 14.1372 7.35597 13.7109C7.69824 13.5081 8.0498 13.4821 8.41066 13.6328C8.15562 12.9791 8.35093 12.5103 8.9966 12.2266C9.22394 12.1895 9.44531 12.209 9.66066 12.2852C9.51863 11.8073 9.63582 11.3971 10.0122 11.0547C10.3477 10.8456 10.6927 10.8261 11.0474 10.9961C11.0159 10.8436 10.9834 10.6873 10.9497 10.5273C10.9626 10.3455 11.0147 10.1762 11.106 10.0195C11.542 10.0345 11.9326 9.9173 12.2778 9.66797Z" fill="#828282"/>
</g>
<defs>
<clipPath id="clip0_153_2785">
<rect width="20" height="20" fill="white" transform="translate(0.5)"/>
</clipPath>
</defs>
</svg>
