<svg width="21" height="20" viewBox="0 0 21 20" fill="none" xmlns="http://www.w3.org/2000/svg">
<path opacity="0.927" fill-rule="evenodd" clip-rule="evenodd" d="M2.62942 3.41786C3.5212 3.3025 4.13969 3.65407 4.48489 4.47255C4.70825 5.42555 4.37621 6.09614 3.4888 6.48426C2.53578 6.70762 1.86521 6.37559 1.47708 5.48817C1.25927 4.45212 1.64338 3.76202 2.62942 3.41786ZM2.70755 4.08192C3.27321 3.99669 3.65732 4.21805 3.85989 4.74598C3.95232 5.297 3.73747 5.66809 3.21536 5.85926C2.66436 5.95169 2.29326 5.73684 2.10208 5.21473C2.01809 4.67938 2.21991 4.30177 2.70755 4.08192Z" fill="#739D73"/>
<path opacity="0.991" fill-rule="evenodd" clip-rule="evenodd" d="M6.45774 3.41748C10.5984 3.41097 14.739 3.41748 18.8796 3.43701C19.1986 3.54769 19.4135 3.76253 19.5242 4.08154C19.5502 4.68049 19.5502 5.27947 19.5242 5.87842C19.4135 6.19744 19.1986 6.41229 18.8796 6.52295C14.739 6.549 10.5984 6.549 6.45774 6.52295C6.18356 6.43111 5.98173 6.25533 5.85227 5.99561C5.80841 5.65986 5.78888 5.32135 5.79368 4.97998C5.78888 4.63861 5.80841 4.3001 5.85227 3.96436C5.98868 3.70398 6.19052 3.52169 6.45774 3.41748ZM6.73118 4.04248C10.6895 4.03596 14.6479 4.04248 18.6062 4.06201C18.782 4.08154 18.8796 4.1792 18.8992 4.35498C18.9252 4.77166 18.9252 5.1883 18.8992 5.60498C18.8796 5.78076 18.782 5.87842 18.6062 5.89795C14.6479 5.924 10.6895 5.924 6.73118 5.89795C6.61423 5.88209 6.52958 5.8235 6.47727 5.72217C6.43419 5.47779 6.41466 5.23041 6.41868 4.97998C6.41993 4.75072 6.43294 4.52287 6.45774 4.29639C6.50153 4.15783 6.59266 4.07318 6.73118 4.04248Z" fill="#739D73"/>
<path opacity="0.927" fill-rule="evenodd" clip-rule="evenodd" d="M2.62942 8.41786C3.5212 8.30251 4.13969 8.65407 4.48489 9.47255C4.70825 10.4256 4.37621 11.0961 3.4888 11.4843C2.53578 11.7076 1.86521 11.3756 1.47708 10.4882C1.25927 9.45212 1.64338 8.762 2.62942 8.41786ZM2.70755 9.08192C3.27321 8.99669 3.65732 9.21805 3.85989 9.74598C3.95232 10.297 3.73747 10.6681 3.21536 10.8593C2.66436 10.9517 2.29326 10.7368 2.10208 10.2147C2.01809 9.67938 2.21991 9.30176 2.70755 9.08192Z" fill="#739D73"/>
<path opacity="0.991" fill-rule="evenodd" clip-rule="evenodd" d="M6.45774 8.41749C10.5984 8.41096 14.739 8.41749 18.8796 8.43702C19.1986 8.54768 19.4135 8.76253 19.5242 9.08155C19.5502 9.68049 19.5502 10.2795 19.5242 10.8784C19.4135 11.1974 19.1986 11.4123 18.8796 11.523C14.739 11.549 10.5984 11.549 6.45774 11.523C6.18356 11.4311 5.98173 11.2553 5.85227 10.9956C5.80841 10.6599 5.78888 10.3214 5.79368 9.97999C5.78888 9.63862 5.80841 9.3001 5.85227 8.96436C5.98868 8.70397 6.19052 8.5217 6.45774 8.41749ZM6.73118 9.04249C10.6895 9.03596 14.6479 9.04249 18.6062 9.06202C18.782 9.08155 18.8796 9.1792 18.8992 9.35499C18.9252 9.77167 18.9252 10.1883 18.8992 10.605C18.8796 10.7808 18.782 10.8784 18.6062 10.898C14.6479 10.924 10.6895 10.924 6.73118 10.898C6.61423 10.8821 6.52958 10.8235 6.47727 10.7222C6.43419 10.4778 6.41466 10.2304 6.41868 9.97999C6.41993 9.75073 6.43294 9.52288 6.45774 9.29639C6.50153 9.15784 6.59266 9.07319 6.73118 9.04249Z" fill="#739D73"/>
<path opacity="0.927" fill-rule="evenodd" clip-rule="evenodd" d="M2.62942 13.4179C3.5212 13.3025 4.13969 13.6541 4.48489 14.4725C4.70825 15.4256 4.37621 16.0961 3.4888 16.4843C2.53578 16.7076 1.86521 16.3756 1.47708 15.4882C1.25927 14.4521 1.64338 13.762 2.62942 13.4179ZM2.70755 14.0819C3.27321 13.9967 3.65732 14.2181 3.85989 14.746C3.95232 15.297 3.73747 15.6681 3.21536 15.8593C2.66436 15.9517 2.29326 15.7368 2.10208 15.2147C2.01809 14.6794 2.21991 14.3018 2.70755 14.0819Z" fill="#739D73"/>
<path opacity="0.991" fill-rule="evenodd" clip-rule="evenodd" d="M6.45774 13.4175C10.5984 13.411 14.739 13.4175 18.8796 13.437C19.1986 13.5477 19.4135 13.7625 19.5242 14.0815C19.5502 14.6805 19.5502 15.2795 19.5242 15.8784C19.4135 16.1974 19.1986 16.4123 18.8796 16.523C14.739 16.549 10.5984 16.549 6.45774 16.523C6.18356 16.4311 5.98173 16.2553 5.85227 15.9956C5.80841 15.6599 5.78888 15.3214 5.79368 14.98C5.78888 14.6386 5.80841 14.3001 5.85227 13.9644C5.98868 13.704 6.19052 13.5217 6.45774 13.4175ZM6.73118 14.0425C10.6895 14.036 14.6479 14.0425 18.6062 14.062C18.782 14.0815 18.8796 14.1792 18.8992 14.355C18.9252 14.7717 18.9252 15.1883 18.8992 15.605C18.8796 15.7808 18.782 15.8784 18.6062 15.898C14.6479 15.924 10.6895 15.924 6.73118 15.898C6.61423 15.8821 6.52958 15.8235 6.47727 15.7222C6.43419 15.4778 6.41466 15.2304 6.41868 14.98C6.41993 14.7507 6.43294 14.5229 6.45774 14.2964C6.50153 14.1578 6.59266 14.0732 6.73118 14.0425Z" fill="#739D73"/>
</svg>
