<svg width="21" height="20" viewBox="0 0 21 20" fill="none" xmlns="http://www.w3.org/2000/svg">
<g id="group (1) 1">
<g id="Group">
<path id="Vector" opacity="0.986" fill-rule="evenodd" clip-rule="evenodd" d="M10.0904 2.67593C11.6742 2.5917 12.7875 3.26879 13.4303 4.70718C13.8907 6.23285 13.4936 7.47633 12.2388 8.43765C11.067 9.14078 9.8951 9.14078 8.72322 8.43765C7.59943 7.60164 7.16326 6.48836 7.41463 5.09781C7.80889 3.73321 8.7008 2.92592 10.0904 2.67593Z" fill="#828282"/>
</g>
<g id="Group_2">
<path id="Vector_2" opacity="0.978" fill-rule="evenodd" clip-rule="evenodd" d="M4.62015 4.35554C5.27456 4.26629 5.87355 4.403 6.41703 4.7657C6.20374 5.88957 6.37304 6.95726 6.92484 7.96882C6.47988 8.6114 5.8614 8.94343 5.06937 8.96492C3.88033 8.88218 3.12512 8.27023 2.80374 7.12898C2.64602 5.69867 3.25149 4.77418 4.62015 4.35554Z" fill="#828282"/>
</g>
<g id="Group_3">
<path id="Vector_3" opacity="0.978" fill-rule="evenodd" clip-rule="evenodd" d="M15.4805 4.35586C16.8581 4.24011 17.75 4.83906 18.1562 6.15273C18.3343 7.57496 17.7419 8.49293 16.3789 8.90664C15.4662 9.06683 14.7045 8.79992 14.0938 8.10585C14.0688 8.06253 14.0493 8.01699 14.0352 7.96914C14.5913 6.96668 14.7541 5.90546 14.5234 4.78554C14.8186 4.58253 15.1375 4.43929 15.4805 4.35586Z" fill="#828282"/>
</g>
<g id="Group_4">
<path id="Vector_4" opacity="0.979" fill-rule="evenodd" clip-rule="evenodd" d="M4.54297 9.35567C5.34918 9.26301 6.10437 9.41274 6.80859 9.80488C6.03059 10.5338 5.5423 11.4257 5.34375 12.4807C5.22754 13.2485 5.11687 14.0167 5.01172 14.7854C4.13345 14.8115 3.2871 14.6618 2.47266 14.3361C2.17488 14.1905 1.90795 14.0017 1.67188 13.7697C1.56735 13.6385 1.50876 13.4888 1.49609 13.3205C1.57634 12.6761 1.71305 12.0446 1.90625 11.426C2.43701 10.2895 3.31592 9.59938 4.54297 9.35567Z" fill="#828282"/>
</g>
<g id="Group_5">
<path id="Vector_5" opacity="0.99" fill-rule="evenodd" clip-rule="evenodd" d="M9.50391 9.35499C10.1551 9.34846 10.8061 9.35499 11.457 9.37452C12.8952 9.6153 13.9304 10.39 14.5625 11.6987C14.6852 11.9886 14.7763 12.288 14.8359 12.5972C14.9966 13.6569 15.1464 14.7181 15.2852 15.7808C15.2991 16.0257 15.2079 16.221 15.0117 16.3667C14.4965 16.6948 13.9366 16.9162 13.332 17.0308C11.4311 17.3693 9.53 17.3693 7.62891 17.0308C7.07473 16.9199 6.55391 16.7246 6.06641 16.4448C5.81504 16.2935 5.68484 16.0722 5.67578 15.7808C5.81457 14.7181 5.9643 13.6569 6.125 12.5972C6.44074 11.1355 7.29359 10.1264 8.68359 9.56983C8.95758 9.48018 9.23102 9.40858 9.50391 9.35499Z" fill="#828282"/>
</g>
<g id="Group_6">
<path id="Vector_6" opacity="0.979" fill-rule="evenodd" clip-rule="evenodd" d="M15.3633 9.35542C17.0669 9.22049 18.2973 9.91057 19.0547 11.4257C19.2458 12.0382 19.3825 12.6632 19.4648 13.3007C19.4182 13.6345 19.2489 13.8884 18.957 14.0624C18.4425 14.386 17.8826 14.5943 17.2773 14.6874C16.8371 14.7541 16.3944 14.7867 15.9492 14.7851C15.8441 14.0165 15.7334 13.2482 15.6172 12.4804C15.4186 11.4255 14.9304 10.5335 14.1523 9.80463C14.535 9.58823 14.9387 9.43846 15.3633 9.35542Z" fill="#828282"/>
</g>
</g>
</svg>
